<svg width="700" height="696" viewBox="0 0 700 696" fill="none" xmlns="http://www.w3.org/2000/svg">
<path d="M350 0C356.28 0 362.523 0.167595 368.725 0.496094C363.279 1.49783 363.854 1.6079 374.002 1.62109C378.357 1.62676 380.922 1.58775 382.001 1.45117C548.761 16.6289 682.995 149.189 698.502 315.721C698.412 317.251 698.383 320.099 698.381 324.496C698.374 336.535 698.482 337.121 699.521 330.68C699.534 330.598 699.544 330.514 699.557 330.43C699.85 336.25 700 342.108 700 348C700 528.068 561.481 676.191 385.94 694.167C386.03 693.933 384.476 693.897 380.965 693.967C377.115 694.043 373.965 694.574 373.965 695.146C373.965 695.16 373.968 695.173 373.969 695.187C366.046 695.725 358.053 696 350 696C157.805 696 0 540.195 0 348C0 343.303 0.0955447 338.628 0.282227 333.977C0.68553 338.68 1.18507 342.447 1.41406 342.449C1.65101 342.449 1.78467 335.417 1.71094 326.823C1.66325 321.26 1.592 317.814 1.45605 316.158C16.7293 149.843 150.412 17.3149 316.73 1.56836C317.358 1.61816 318.238 1.64745 319.334 1.64746C322.605 1.64746 323.96 1.39318 322.378 1.08008C331.496 0.36515 340.708 0 350 0ZM385.94 694.167C385.885 694.312 385.204 694.533 383.965 694.85C378.513 696.243 374.066 696.389 373.969 695.187C377.978 694.914 381.968 694.574 385.94 694.167ZM370.282 693.916C368.624 693.598 366.223 693.611 364.948 693.943C363.674 694.276 365.031 694.536 367.964 694.521C370.897 694.507 371.94 694.234 370.282 693.916ZM330.297 693.883C327.18 693.603 322.08 693.603 318.964 693.883C315.847 694.163 318.397 694.393 324.631 694.393C330.864 694.393 333.414 694.163 330.297 693.883ZM382.107 657.303C381.084 654.545 380.904 654.6 376.43 659.03C373.888 661.547 368.41 666.688 364.257 670.455C356.045 677.904 356.065 678.387 364.724 682.134C371.028 684.862 381.728 684.744 386.852 681.891C389.15 680.611 393.322 677.522 396.122 675.027C400.227 671.37 400.834 670.262 399.256 669.305C398.179 668.652 394.118 666.325 390.231 664.134C386.345 661.943 382.689 658.869 382.107 657.303ZM322.167 657.465C321.39 655.371 319.931 655.9 309.63 662.01C303.218 665.813 297.97 669.602 297.968 670.43C297.963 672.258 304.717 677.506 311.964 681.305C318.536 684.75 328.268 685.029 335.007 681.964C337.733 680.724 341.147 679.355 342.593 678.921C344.787 678.262 343.392 676.624 334.133 668.983C328.035 663.952 322.65 658.768 322.167 657.465ZM265.57 645.985C263.849 642.22 257.071 641.567 258.672 645.32C263.491 656.619 262.774 660.922 255.53 664.178C250.721 666.339 250.099 668.857 253.876 670.873C257.372 672.74 263.746 672.572 273.146 670.366C280.774 668.576 281.074 668.61 283.812 671.576C286.631 674.629 288.632 675.659 288.632 674.059C288.632 673.591 287.79 672.543 286.761 671.731C283.503 669.162 266.998 649.107 265.57 645.985ZM327.046 606.96C326.685 604.686 325.141 605.389 315.002 612.437C308.605 616.883 303.006 621.112 302.559 621.834C302.112 622.556 305.095 627.229 309.188 632.22C313.282 637.211 316.632 641.976 316.632 642.809C316.632 645.622 319.13 644.348 327.355 637.341C339.842 626.703 341.404 625.905 344.224 628.718C346.44 630.928 346.055 631.54 336.259 641.368C326.044 651.616 324.596 653.632 327.445 653.632C328.26 653.632 333.709 658.12 339.556 663.605C350.074 673.474 352.633 675.107 352.633 671.957C352.633 671.065 357.133 666.127 362.634 660.985C368.134 655.843 372.634 651.004 372.634 650.23C372.633 649.457 371.168 648.261 369.378 647.571C364.746 645.788 327.544 610.097 327.046 606.96ZM439.008 640.375C438.48 640.352 435.849 643.774 433.16 647.979C426.942 657.705 422.364 663.206 418.91 665.102C416.214 666.581 416.219 666.615 419.331 668.276C421.061 669.2 424.012 670.454 425.888 671.062C430.344 672.508 440.132 671.593 445.792 669.201L450.283 667.304L444.458 664.104C440.59 661.98 438.484 659.861 438.189 657.798C437.484 652.859 439.083 648.56 441.965 647.647C444.523 646.838 444.537 646.685 442.296 643.611C441.015 641.854 439.536 640.398 439.008 640.375ZM456.044 668.26C454.901 668.26 453.966 668.859 453.966 669.59C453.966 670.321 454.531 670.92 455.221 670.92C455.911 670.92 456.846 670.321 457.299 669.59C457.752 668.858 457.187 668.26 456.044 668.26ZM402.401 625.705C401.565 625.705 401.133 626.752 401.441 628.032C401.793 629.495 399.022 633.723 393.982 639.412C389.572 644.391 385.965 649.049 385.965 649.761C385.965 650.473 387.015 651.442 388.298 651.914C389.581 652.386 392.985 654.235 395.862 656.023C398.739 657.812 403.839 660.683 407.195 662.403C410.552 664.124 413.898 665.5 414.632 665.461C415.365 665.422 415.214 665.089 414.298 664.72C411.289 663.509 412.536 660.412 419.426 651.976C426.028 643.892 429.635 638.059 428.515 637.279C426.379 635.795 403.615 625.705 402.401 625.705ZM294.63 626.184C292.997 625.56 276.766 633.677 270.634 638.184C268.198 639.974 268.165 640.219 270.25 641.025C271.506 641.511 275.974 646.192 280.181 651.427C284.387 656.662 288.46 661.385 289.231 661.923C291.721 663.657 293.254 663.052 303.696 656.215C313.921 649.52 315.606 647.526 312.156 646.205C311.16 645.824 307.206 641.315 303.369 636.186C299.533 631.056 295.6 626.555 294.63 626.184ZM165.151 545.793C162.869 543.903 162.621 544.62 160.731 558.547C157.721 580.75 149.137 589.799 131.088 589.799C120.469 589.799 119.715 591.073 125.451 599.328C129.877 605.698 139.055 611.508 149.298 614.423C153.698 615.675 158.648 617.217 160.298 617.849C163.275 618.989 163.298 618.904 163.312 606.726C163.327 594.867 164.717 587.95 169.177 577.546C171.802 571.423 174.634 569.852 183.044 569.852C201.287 569.852 215.282 582.868 215.215 599.772C215.168 611.493 208.821 618.967 194.321 624.378C186.395 627.336 181.714 627.706 177.91 625.676C173.64 623.397 176.645 629.205 183.017 635.546C190.841 643.332 200.43 648.762 217.315 654.967C225.373 657.928 232.867 660.853 233.967 661.469L233.964 661.471C235.592 662.382 236.108 661.326 236.74 655.784C237.167 652.041 237.973 647.954 238.53 646.702C239.732 644.002 243.949 642.417 246.215 643.813C247.099 644.358 246.504 642.958 244.894 640.702C241.64 636.145 241.016 631.025 243.715 631.025C244.678 631.025 247.19 632.821 249.298 635.016C253.902 639.808 254.229 639.849 256.084 635.856C257.255 633.335 257.115 632.466 255.361 631.374C254.165 630.629 251.111 626.969 248.575 623.242C246.039 619.515 243.551 616.451 243.046 616.432C242.541 616.413 241.774 619.24 241.342 622.714C240.338 630.783 236.819 641.664 234.255 644.63C229.533 650.09 216.51 649.131 209.27 642.79C200.598 635.197 204.201 625.089 216.812 621.638C221.573 620.334 223.635 620.399 228.149 621.992L233.667 623.939L234.301 617.367C234.649 613.752 235.693 610.327 236.62 609.755C237.631 609.132 237.872 607.99 237.223 606.904C236.627 605.908 230.199 595.894 222.938 584.651C214.368 571.38 209.967 563.341 210.389 561.729C211.098 559.025 207.357 557.658 180.136 550.677C172.897 548.82 166.154 546.623 165.151 545.793ZM447.3 646.982C445.333 646.984 445.067 656.532 446.98 658.44C447.996 659.453 450.331 660.281 452.17 660.281C455.234 660.281 455.441 659.919 454.635 655.959C453.823 651.969 449.748 646.982 447.3 646.982ZM233.312 32.5781C227.978 32.5783 207.259 39.8052 198.346 44.7744C190.619 49.0818 173.953 64.2879 173.951 67.0312C173.951 67.881 176.619 68.4844 180.376 68.4844C202.363 68.4845 215.419 81.7233 211.555 100.098C208.512 114.566 198.802 124.383 186.529 125.398C172.785 126.534 165.891 120.779 163.234 105.95C162.329 100.898 161.872 91.8983 162.217 85.9492C162.657 78.3708 162.389 75.1328 161.323 75.1328C160.486 75.1332 156.029 76.4037 151.417 77.957C142.512 80.9558 118.035 97.933 115.32 102.992C113.604 106.191 114.001 106.252 123.45 104.23C144.434 99.7422 161.673 115.708 162.418 140.322C162.659 148.321 162.447 148.285 180.743 143.392C195.7 139.391 198.014 139.963 193.938 146.646C191.521 150.61 190.79 150.935 184.251 150.935C177.866 150.935 163.472 153.829 160.38 155.735C159.674 156.171 159.813 157.281 160.706 158.354C163.978 162.288 158.38 183.957 152.604 189.719C147.468 194.84 139.349 195.006 134.42 190.09C132.249 187.925 131.258 185.751 131.689 184.105C132.585 180.687 131.133 180.733 104.378 184.957C79.087 188.95 58.4066 193.854 51.0332 197.605C46.4979 199.913 39.8196 207.769 41.2119 209.157C41.4877 209.43 46.3006 208.369 51.9082 206.8C63.5536 203.541 82.7513 202.021 90.6162 203.735C95.0579 204.704 96.0196 205.497 96.3691 208.48C96.6969 211.278 95.377 213.47 90.3389 218.495C84.1135 224.705 66.7966 236.044 63.5391 236.045C61.4111 236.045 61.5357 237.651 63.9072 240.778C66.6256 244.363 66.4193 247.669 63.376 249.294C60.6456 250.751 58.784 249.556 54.6729 243.702L52.6709 240.851L49.6436 243.611C47.9786 245.13 44.5159 247.415 41.9492 248.689C34.3979 252.438 33.586 253.379 35.7676 255.852C39.3642 259.928 51.3601 284.046 50.4902 285.452C49.0274 287.813 55.6212 285.242 59.0762 282.104C62.8972 278.634 65.2894 274.077 66.4336 268.088C67.426 262.894 69.4655 259.983 72.1123 259.982C74.3924 259.982 74.5846 268.949 72.4678 276.554C70.8289 282.441 57.7576 296.057 50.7129 299.216C46.5441 301.085 39.2812 307.034 39.2812 308.579C39.2825 309.048 41.3824 311.876 43.9482 314.866C46.5146 317.857 48.6147 321.221 48.6152 322.344C48.6152 324.069 48.9752 324.026 50.9482 322.06C52.6958 320.318 53.3473 317.24 53.541 309.8C53.8203 299.068 54.3863 297.218 57.3936 297.218C60.1269 297.218 61.9482 302.783 61.9482 311.133C61.9482 316.441 60.9421 320.133 57.9482 325.81C55.7483 329.981 53.9482 333.562 53.9482 333.769C53.9487 333.975 55.0776 334.438 56.457 334.798C58.0351 335.209 60.0143 338.245 61.791 342.981C67.0333 356.957 65.032 374.8 56.5684 389.545C55.2782 391.793 53.8365 394.928 53.3643 396.514C52.6526 398.903 52.9544 399.279 55.1328 398.711C61.541 397.039 66.6122 418.883 63.6016 435.189C62.4119 441.633 62.51 442.172 64.8711 442.172C66.6828 442.172 68.4307 444.352 70.8594 449.643C73.7599 455.962 74.1836 458.416 73.6094 465.551C72.1452 483.74 56.0617 500.333 48.2549 491.708C43.7886 486.774 42.0811 471.541 45.2012 464.465C45.9846 462.688 45.3431 461.846 42.416 460.808C40.325 460.066 37.5511 458.847 36.251 458.1C32.6849 456.049 31.9701 459.576 33.8389 470.006C35.8834 481.417 40.4143 491.183 45.7363 495.649C54.1031 502.671 74.9383 508.281 106.095 511.9C117.849 513.266 122.96 514.406 124.062 515.908C125.389 517.719 126.294 517.163 130.651 511.859C136.566 504.661 142.537 500.697 147.479 500.69C152.352 500.684 159.797 509.099 158.717 513.393C157.845 516.858 158.739 517.308 169.283 518.707C176.93 519.722 181.95 522.404 181.95 525.475C181.95 527.31 180.605 527.47 171.95 526.661L161.95 525.726L161.968 530.161C161.999 537.854 163.148 540.238 166.514 539.597C168.178 539.279 177.882 541.403 188.078 544.316C198.274 547.23 210.125 550.424 214.414 551.414C222.274 553.229 225.568 556.139 224.095 559.968C223.695 561.008 222.191 561.859 220.754 561.859C218.535 561.859 219.194 563.412 225.124 572.165C239.166 592.891 260.617 627.329 260.617 629.146C260.617 630.172 261.23 631.012 261.978 631.012C264.668 631.012 287.284 618.983 287.284 617.552C287.283 616.745 282.583 609.421 276.837 601.274C263.562 582.453 256.278 570.311 256.095 566.694C255.966 564.163 255.059 563.812 247.73 563.462C235.196 562.863 231.946 556.541 244.172 556.541C249.43 556.541 250.106 556.232 249.26 554.214C245.846 546.077 246.36 534.855 250.26 532.386C258.156 527.387 280.618 542.051 280.618 552.205C280.618 555.908 274.919 560.249 267.669 562.07C264.466 562.875 262.019 563.905 262.231 564.359C262.445 564.814 266.168 570.572 270.503 577.154C274.838 583.737 281.586 594.077 285.498 600.134C289.41 606.19 293.59 611.521 294.788 611.979C297.581 613.049 302.772 610.261 323.098 596.77C332.189 590.736 340.15 585.799 340.79 585.799C343.927 585.799 341.299 591.099 335.952 595.557C329.871 600.627 328.495 603.086 331.739 603.086C333.648 603.088 350.86 618.354 367.246 634.577L377.193 644.427L387.391 633.752L397.589 623.076L386.443 616.838C375.167 610.525 373.179 607.835 377.278 604.442C378.898 603.102 381.462 603.94 391.384 609.051C398.05 612.485 403.608 615.093 403.738 614.849C406.09 610.219 410.392 603.556 422.3 586.104C430.183 574.552 436.633 564.43 436.634 563.609C436.634 562.759 435.452 562.428 433.879 562.838C424.694 565.234 415.452 547.995 421.389 539.541C424.67 534.87 433.031 531.284 440.642 531.284C446.163 531.284 448.065 531.925 450.883 534.735C454.178 538.022 454.306 538.677 453.554 548.405L452.764 558.623L465.032 557.601C471.781 557.039 478.877 556.903 480.802 557.3C483.951 557.948 484.887 557.094 490.136 548.776C493.344 543.692 496.991 537.676 498.24 535.408C499.859 532.469 501.487 531.285 503.907 531.285C506.078 531.285 507.303 532.025 507.303 533.337C507.301 538.48 480.882 580.538 469.815 593.015L464.014 599.556L463.324 612.699C462.733 623.988 462.918 625.75 464.636 625.179C465.736 624.813 470.238 623.188 474.642 621.567C482.477 618.684 482.755 618.671 487.7 621.012C500.884 627.251 497.995 641.927 482.583 647C474.055 649.807 461.969 645.038 461.969 638.865C461.969 634.926 465.004 634.555 471.141 637.745C475.162 639.835 477.909 640.391 481.188 639.777C489.38 638.244 491.157 631.919 484.314 628.648C479.645 626.417 472.576 628.204 464.509 633.655C454.536 640.395 447.681 637.339 456.302 629.996C458.747 627.913 459.413 626.641 458.302 626.178C457.385 625.795 456.636 624.371 456.636 623.013C456.636 621.654 456.173 620.258 455.609 619.91C454.527 619.247 443.302 631.841 443.302 633.717C443.302 634.316 445.312 635.469 447.77 636.277C453.936 638.307 461.173 648.483 461.247 655.228L461.227 655.165L461.282 660.209L468.049 660.213C475.652 660.218 490.554 655.578 500.803 650.015C507.72 646.259 523.708 630.062 522.47 628.062C522.098 627.462 519.837 626.971 517.447 626.971C506.443 626.971 493.051 620.443 487.647 612.446C483.681 606.576 483.461 594.547 487.187 587.264C493.012 575.875 507.262 567.509 518.654 568.79C525.786 569.592 529.441 572.445 532.736 579.785C535.56 586.075 537.076 605.324 535.342 612.848L534.152 618.009L540.604 617.246C550.043 616.132 562.083 609.477 572.302 599.726L581.284 591.153L573.942 591.109C560.422 591.028 551.578 586.712 545.349 577.156C541.052 570.564 537.737 559.636 537.616 551.66L537.525 545.688L532.071 546.592C529.071 547.088 521.657 548.92 515.596 550.662C499.707 555.23 497.572 554.745 503.616 547.942C505.95 545.317 510.002 543.748 521.835 540.887L537.054 537.207L537.4 530.249C537.835 521.527 541.381 509.158 544.833 504.322C548.698 498.908 555.358 499.293 563.725 505.414C567.828 508.416 569.899 510.817 569.433 512.03C568.378 514.769 570.998 514.552 602.66 509.274C635.193 503.852 640.435 502.624 648.834 498.467C658.821 493.522 662.232 486.679 663.764 468.521C664.388 461.117 664.344 461.001 660.638 460.459L656.877 459.909L656.409 470.191C656.004 479.082 655.393 481.251 651.892 486.22C646.052 494.507 642.08 495.516 634.955 490.521C628.827 486.226 627.432 481.479 631.539 478.895C633.252 477.817 634.4 478.022 636.312 479.747C639.878 482.966 642.654 482.572 645.963 478.376C648.141 475.614 648.696 473.445 648.26 469.399C647.789 465.039 642.563 448.653 640.832 446.112C639.894 444.736 633.901 453.656 631.97 459.301C629.749 465.794 626.492 470.05 623.744 470.05C619.168 470.05 624.231 453.615 632.501 441.627C636.575 435.721 636.782 434.941 635.105 431.813C634.033 429.814 633.346 424.794 633.436 419.613C633.598 410.18 636.222 403.401 642.672 395.756C646.076 391.721 646.098 391.589 643.355 391.589C638.964 391.589 635.126 381.361 634.375 367.651C633.755 356.337 635.548 346.781 640.947 332.611C642.811 327.722 642.757 327.352 639.758 324.36C635.693 320.307 635.494 309.6 639.284 298.846C640.75 294.686 641.95 291.112 641.951 290.9C641.951 290.692 640.563 290.521 638.867 290.521C635.366 290.521 630.086 285.422 626.475 278.553C622.605 271.191 623.166 257.985 627.674 250.312C629.642 246.962 632.833 243.073 634.765 241.67L638.276 239.118L626.613 231.379C614.104 223.078 600.618 210.609 600.617 207.345C600.617 203.909 607.293 202.455 619.951 203.134C634.069 203.891 649.892 207.522 652.367 210.571C653.965 212.54 654.282 212.503 656.034 210.145C662.929 200.864 652.707 196.158 604.979 186.641C585.806 182.818 576.654 180.415 575.229 178.832C573.313 176.7 572.702 176.977 566.178 182.961C558.694 189.825 551.023 193.004 545.363 191.587C541.478 190.614 536.215 183.19 537.327 180.251C538.506 177.135 535.216 176.196 523.029 176.175C511.313 176.154 509.295 175.415 510.736 171.669C511.359 170.051 514.17 169.52 523.699 169.222L535.867 168.841L535.505 162.191C535.305 158.534 534.82 154.454 534.427 153.123C533.784 150.948 533.556 150.917 532.165 152.814C530.426 155.185 528.019 154.675 495.663 145.079C486.705 142.423 478.476 140.249 477.376 140.249C475.04 140.249 472.123 135.471 473.3 133.572C473.744 132.856 475.894 132.27 478.078 132.27H482.049L476.415 123.958C473.316 119.387 462.794 104.661 453.032 91.2324C443.271 77.8052 435.283 65.9865 435.282 64.9678C435.282 62.1502 433.781 62.6263 422.234 69.1025C416.366 72.3939 410.901 75.0869 410.09 75.0869C409.279 75.087 408.616 75.3869 408.615 75.7539C408.615 76.113 414.656 85.4222 422.029 96.46C429.406 107.456 436.755 119.095 438.362 122.324L441.284 128.194L450.121 128.26C459.353 128.328 463.021 130.277 461.476 134.293C460.927 135.72 458.751 136.305 453.993 136.305C450.303 136.305 447.284 136.477 447.284 136.688C447.285 136.901 448.485 139.421 449.951 142.289C453.342 148.923 453.331 153.659 449.914 157.991C443.769 165.784 426.887 163.045 420.831 153.271C419.247 150.715 417.953 147.498 417.956 146.121C417.965 141.964 422.868 135.27 428.504 131.722L433.82 128.375L427.97 119.374C424.752 114.424 417.593 103.708 412.062 95.5615L402.007 80.749L379.061 103.873C366.441 116.59 355.33 126.994 354.366 126.996C351.717 126.996 352.081 127.892 359.312 139.136C369.978 155.72 374.37 167.969 374.504 181.521C374.597 190.864 374.091 193.805 371.59 198.477C368.5 204.248 365.951 205.831 365.951 201.979C365.951 200.798 363.744 196.831 361.047 193.166C354.68 184.514 353.796 176.491 357.882 164.42L360.743 155.965L355.803 148.811C350.9 141.711 346.269 136.706 345.57 137.754C342.877 141.795 332.536 163.443 331.542 167.121C329.834 173.441 331.807 176.353 339.883 179.429C343.969 180.985 346.166 182.683 346.599 184.622C347.443 188.407 346.836 210.338 345.859 211.312C343.984 213.181 336.009 202.101 331.024 190.702C324.424 175.609 323.371 167.395 326.689 156.874C329.821 146.944 338.714 133.143 341.335 134.146C344.637 135.409 343.527 132.853 337.618 125.584C320.267 104.243 321.381 106.119 323.839 102.377C326.697 98.027 327.729 98.6869 337.692 111.235C346.691 122.569 348.821 124.395 349.76 121.585C350.108 120.544 355.227 114.658 361.135 108.505C369.011 100.303 371.348 97.1066 369.892 96.5303C368.8 96.0967 360.243 87.8809 350.879 78.2705C341.514 68.6603 331.475 59.1537 328.568 57.1445C325.662 55.1357 323.284 52.6754 323.284 51.6777C323.284 47.4826 320.793 49.3342 310.064 61.5C305.388 66.8028 300.749 71.1416 299.756 71.1416C296.432 71.1417 297.901 73.6378 303.617 77.7061C306.734 79.9242 311.339 83.5253 313.851 85.708C317.981 89.298 318.27 89.9977 316.879 93.043C314.734 97.7375 311.999 97.2642 304.821 90.9561C297.026 84.1046 291.284 80.9333 291.284 83.4795C291.284 84.4519 286.924 90.6947 281.594 97.3525C273.143 107.909 262.329 124.766 259.975 131.052C259.376 132.649 260.186 133.117 263.576 133.129C269.543 133.15 275.438 136.232 277.901 140.618C279.812 144.021 279.736 144.672 276.761 150.269C272.506 158.273 266.146 162.088 256.913 162.172C250.648 162.229 249.31 161.757 246.504 158.506C242.595 153.977 242.509 151.662 245.931 143.004L248.578 136.306H243.79C237.929 136.306 225.558 139.417 217.18 142.999C212.598 144.958 210.487 145.281 209.205 144.22C207.106 142.482 204.45 146.145 201.925 154.259C201.014 157.184 199.674 160.326 198.946 161.24C197.393 163.192 190.461 163.473 189.319 161.631C187.873 159.297 192.118 151.738 203.913 135.641C214.742 120.863 223.24 107.625 223.271 105.489C223.278 104.997 221.784 102.816 219.951 100.643C214.685 94.4003 215.379 88.527 222.097 82.4736C225.983 78.9719 228.466 77.7073 230.642 78.1221C233.304 78.6297 233.787 78.0772 234.307 73.9277C234.636 71.2992 234.707 68.9147 234.465 68.6299C234.221 68.3456 230.517 69.0932 226.233 70.292C216.623 72.9816 212.245 73.0366 207.38 70.5273C197.692 65.5311 201.549 50.1259 213.53 45.9619C218.717 44.1593 219.383 44.236 225.487 47.3418C229.358 49.3114 232.76 52.2221 233.966 54.5977C235.778 58.1662 236.346 58.4351 239.639 57.2803C245.681 55.1611 247.053 58.1753 242.064 62.6084C239.777 64.6408 238.418 66.645 239.043 67.0615C239.668 67.4784 240.767 68.8924 241.484 70.2041C242.655 72.3437 243.467 71.9512 249.37 66.3945L255.951 60.1992L250.581 57.8721C240.762 53.6176 231.384 39.2612 235.328 34.5215C236.679 32.898 236.347 32.5781 233.312 32.5781ZM249.956 646.963C245.674 646.963 241.416 655.28 244.25 658.106C246.081 659.932 251.936 658.301 252.406 655.835C253.046 652.475 251.523 646.963 249.956 646.963ZM225.25 626.062C218.539 625.613 216.598 625.996 213.583 628.361C207.145 633.413 209.398 639.702 218.308 641.551C220.686 642.044 224.042 642.186 225.763 641.866C229.581 641.156 234.154 634.171 233.661 629.801C233.332 626.884 232.588 626.554 225.25 626.062ZM454.42 562.663C450.444 562.007 449.88 562.467 444.42 570.834C441.237 575.712 432.159 588.329 424.246 598.873C416.337 609.411 410.04 618.188 410.246 618.384C410.459 618.571 415.01 620.911 420.359 623.582C425.709 626.253 430.433 629.341 430.857 630.443C432.133 633.758 434.193 631.994 442.752 620.264C447.717 613.46 451.789 609.135 453.125 609.248C455.647 609.462 455.591 609.666 459.424 586.455C460.994 576.947 462.822 568.135 463.486 566.873C464.754 564.462 464.441 564.317 454.42 562.663ZM532.635 628.268C532.635 627.493 532.035 627.229 531.302 627.681C530.569 628.132 529.969 628.766 529.969 629.089C529.969 629.411 530.568 629.676 531.302 629.676C532.035 629.676 532.635 629.042 532.635 628.268ZM197.528 583.957C191.988 576.927 185.907 574.422 180.788 577.062C174.019 580.553 169.175 595.224 170.276 608.902C170.645 613.488 171.681 618.606 172.577 620.276C173.768 622.496 174.602 622.917 175.682 621.84C176.494 621.03 178.429 620.367 179.982 620.367C186.096 620.367 196.708 616.121 201.233 611.864C208.659 604.879 207.574 596.703 197.528 583.957ZM328.574 84.1084C339.721 72.5509 340.565 71.9514 342.719 74.0537C344.877 76.1597 344.37 76.9696 333.99 88.0176C327.93 94.4674 318.536 106.412 313.113 114.561C300.436 133.612 298.261 141.232 300.326 159.363C302.601 179.336 310.523 192.662 328.539 206.815C340.743 216.402 353.789 225.415 355.465 225.416C356.829 225.416 364.737 218.666 376.408 207.541C385.074 199.281 394.2 187.187 396.747 180.589C399.744 172.824 400.784 161.446 399.194 153.808C397.312 144.765 389.998 127.872 383.743 118.119C378.889 110.55 378.435 106.722 382.303 105.979C384.759 105.508 388.052 110.311 400.83 132.99C410.067 149.384 419.058 163.098 422.456 165.979C428.356 170.981 436.574 173.55 447.332 173.754C459.469 173.984 463.725 172.03 466.732 164.852C468.366 160.953 468.35 158.34 466.61 145.341C465.506 137.086 463.707 126.142 462.613 121.022C460.187 109.667 460.187 109.719 462.472 109.719C464.876 109.719 468.624 117.653 468.624 122.742C468.624 130.412 474.108 154.338 477.451 161.259C481.363 169.355 482.812 170.325 492.291 171.191L499.291 171.832V167.482C499.291 165.09 498.071 160.292 496.578 156.819C493.651 150.009 494.47 147.423 499.091 148.886C503.049 150.138 507.277 157.742 508.163 165.202C509.727 178.382 503.174 196.524 492.467 208.656C485.539 216.506 486.12 219.509 494.312 218.191C523.186 213.546 527.356 213.203 546.187 213.919C582.863 215.314 590.949 218.141 614.96 237.967C621.795 243.61 624.627 246.837 624.627 248.981C624.627 253.726 620.468 252.758 610.522 245.697C605.629 242.223 596.45 235.878 590.125 231.598L578.626 223.815L559.292 224.445C537.624 225.151 483.254 233.051 470.904 237.289C464.28 239.562 444.676 251.77 439.731 256.702C438.651 257.78 436.742 258.662 435.491 258.662C434.24 258.662 432.033 259.475 430.587 260.468C429.14 261.461 425.59 262.707 422.697 263.236C419.804 263.766 414.564 265.651 411.053 267.426C402.419 271.789 401.531 275.465 407.208 283.35C413.576 292.193 413.843 296.854 408.572 307.104L404.174 315.656L407.828 323.776C410.331 329.338 411.225 333.058 410.669 335.585C410.222 337.614 405.935 345.522 401.141 353.159C387.803 374.405 380.504 390.167 379.649 399.568C378.741 409.558 380.858 413.178 389.283 416.041C392.89 417.267 397.721 420.472 401.03 423.835C404.122 426.977 410.929 431.856 416.158 434.679C423.939 438.879 426.021 440.712 427.621 444.774C429.135 448.618 431.049 450.443 436.1 452.855C439.688 454.57 445.377 457.843 448.742 460.13C452.107 462.417 456.607 464.913 458.742 465.676C460.877 466.439 467.424 469.023 473.29 471.418C495.969 480.676 515.268 484.093 563.371 487.365C584.373 488.794 593.608 487.792 606.625 482.671C616.617 478.74 630.931 469.009 637.028 462.001C640.512 457.997 640.914 457.857 642.981 459.919C645.049 461.981 644.707 462.627 637.919 469.482C633.915 473.526 625.237 480.361 618.633 484.673C608.138 491.525 605.186 492.776 595.188 494.608C580.816 497.242 569.915 497.277 563.753 494.709C559.949 493.124 552.387 492.715 526.896 492.715H494.827L497.575 495.707C501.486 499.964 505.44 508.449 506.404 514.653C507.611 522.416 509.78 523.432 522.984 522.42L534.197 521.561L533.744 524.758L533.292 527.956L507.645 528.316L481.997 528.678L479.907 532.71C478.757 534.928 477.459 539.746 477.023 543.416C476.101 551.181 472.819 556.086 469.416 554.784C467.525 554.06 467.266 552.803 467.931 547.581C468.373 544.101 469.416 538.982 470.248 536.205C471.609 531.661 471.466 530.863 468.815 528.226C466.022 525.445 464.828 525.304 445.48 525.456C415.738 525.69 414.434 526.624 404.446 554.846C398.166 572.591 391.845 583.004 375.566 602.42L375.562 602.419C360.591 620.276 357.463 622.601 354.007 618.448C351.695 615.671 353.185 612.357 360.072 604.957C381.802 581.612 387.1 574.647 393.752 560.676C399.907 547.75 400.919 537.024 396.754 528.881C395.205 525.853 387.491 516.274 379.612 507.593C371.733 498.913 362.287 488.201 358.62 483.79C354.954 479.379 350.058 474.456 347.741 472.851L343.528 469.931L338.407 472.541C335.591 473.977 328.077 480.45 321.709 486.926C308.806 500.049 307.615 501.475 298.62 514.583L292.284 523.816L293.692 533.865C295.352 545.712 304.534 565.1 316.101 581.178C323.838 591.934 324.668 594.498 320.809 595.72C315.098 597.527 312.275 593.548 296.394 561.313C280.788 529.637 272.91 523.302 249.134 523.302C238.243 523.302 237.573 523.476 233.719 527.32C229.099 531.928 229.098 532.11 233.66 557.878C237.838 581.476 238 583.145 236.116 583.145C233.445 583.144 230.387 575.239 227.312 560.389C222.989 539.505 220.572 531.649 217.662 529.022C215.608 527.168 212.751 526.637 204.819 526.632C195.308 526.626 194.592 526.427 194.2 523.681C193.716 520.283 192.944 520.509 215.938 517.297C253.888 511.995 286.051 495.551 294.14 477.313C298.494 467.494 295.28 463.689 284.049 465.369C278.715 466.167 273.261 469.073 237.535 490.146C227.411 496.117 222.733 498.072 216.868 498.785C204.739 500.259 193.093 504.33 190.081 508.148C186.797 512.314 187.527 518.029 192.133 524.21C193.867 526.538 195.286 528.85 195.287 529.349C195.287 529.847 198.272 533.692 201.921 537.893C207.994 544.884 208.925 547.238 205.616 547.238C202.85 547.238 186.799 530.262 184.453 524.854C178.825 511.878 182.6 498.192 193.683 491.387C204.135 484.969 205.954 483.389 205.954 480.73C205.954 477.227 201.512 475.164 194.089 475.222C189.741 475.255 182.022 477.558 168.571 482.834C141.312 493.526 134.472 495.208 117.865 495.298C96.0318 495.417 83.5956 492.315 75.5635 484.747C73.392 482.701 72.7595 481.031 73.3799 478.979C74.8622 474.078 75.9674 473.888 82.7354 477.371C91.4941 481.879 103.13 483.871 115.287 482.944C126.346 482.101 134.826 479.588 158.621 470.105C171.504 464.972 178.259 463.176 193.288 460.895C232.85 454.888 239.907 452.33 253.955 438.904C260.461 432.688 263.947 430.376 267.932 429.634C275.583 428.209 277.288 426.981 280.449 420.612C282.004 417.481 285.125 412.746 287.387 410.09C291.552 405.199 293.867 398.375 293.925 390.818C293.948 387.83 296.296 383.538 302.302 375.503C306.892 369.363 312.248 360.758 314.204 356.382C320.217 342.932 322.675 314.575 318.575 305.957C317.449 303.589 313.399 298.401 309.575 294.428C303.868 288.497 301.076 286.731 293.986 284.568C284.757 281.753 283.539 280.411 280.724 269.965C279.935 267.039 276.127 260.756 272.263 256.002C260.428 241.444 244.716 232.79 219.289 226.825C213.056 225.363 203.444 222.395 197.931 220.23C179.818 213.119 153.64 213.418 127.954 221.028C116.074 224.548 111.555 227.093 98.6201 237.553C94.9533 240.518 86.8534 246.249 80.6201 250.29C74.3868 254.331 64.8646 260.597 59.46 264.215C54.0554 267.833 48.8053 270.476 47.793 270.089C44.5128 268.833 45.8159 264.332 50.2861 261.476C52.6695 259.953 57.0879 256.752 60.1045 254.362C90.5073 230.279 108.646 218.617 129.286 209.882L141.287 204.803H171.507C188.128 204.803 202.108 204.425 202.573 203.963C204.17 202.375 201.698 196.309 195.812 187.371C192.013 181.601 190.194 177.555 190.693 175.985C191.592 173.16 189.902 172.911 173.621 173.482C164.298 173.809 163.289 173.603 163.308 171.371C163.356 165.48 164.553 165.176 188.825 164.911C201.546 164.772 213.026 164.193 214.337 163.624C217.347 162.317 220.117 157.025 221.347 150.232C222.555 143.56 224.103 141.635 228.26 141.635C230.878 141.635 231.379 142.123 230.649 143.962C228.161 150.231 226.821 160.395 228.025 163.878C229.891 169.274 237.398 172.398 250.447 173.21C264.49 174.084 274.285 171.472 280.139 165.293C282.513 162.787 287.958 152.651 292.882 141.573C305.415 113.374 314.578 98.6197 328.574 84.1084ZM514.048 577.812C506.647 577.813 500.345 581.424 495.668 588.347C488.195 599.407 495.515 612.997 511.222 617.222C514.567 618.121 519.489 618.898 522.16 618.947L527.018 619.037L527.212 608.066C527.319 602.033 527.477 596.199 527.564 595.101C528.021 589.348 526.964 585.594 523.851 581.903C520.886 578.389 519.503 577.812 514.048 577.812ZM343.985 500.298C346.991 495.515 353.824 493.829 357.616 496.934C365.574 503.45 373.969 525.871 373.969 540.607C373.969 551.641 370.697 559.874 361.492 572.01C358.087 576.498 355.302 580.816 355.302 581.604C355.302 582.391 357.74 585.303 360.72 588.075C364.459 591.554 365.873 593.803 365.283 595.335C363.663 599.547 360.77 598.922 351.993 592.46C333.716 579.002 316.001 559.015 311.988 547.322C309.363 539.672 309.415 526.96 312.107 517.916C317.706 499.113 332.792 488.828 337.876 500.349C338.925 502.725 340.124 504.647 340.542 504.62C340.96 504.592 342.509 502.647 343.985 500.298ZM591.304 588.372C591.304 587.598 590.704 587.334 589.971 587.786C589.237 588.238 588.637 588.872 588.637 589.194C588.637 589.517 589.238 589.78 589.971 589.78C590.704 589.78 591.304 589.147 591.304 588.372ZM107.885 584.461C107.562 584.461 107.297 585.06 107.297 585.791C107.297 586.522 107.932 587.121 108.709 587.121C109.486 587.121 109.75 586.522 109.297 585.791C108.844 585.06 108.208 584.461 107.885 584.461ZM575.765 538.907C574.031 535.52 573.667 535.386 570.928 537.123C569.298 538.157 564.365 539.696 559.965 540.542C555.565 541.388 550.057 542.672 547.727 543.395C543.775 544.62 543.534 545.041 544.156 549.624C546.805 569.139 549.957 575.184 559.964 579.938C567.103 583.329 576.578 584.097 582.689 581.779C585.266 580.802 585.891 579.972 584.941 578.787C584.219 577.885 583.209 573.556 582.697 569.168C581.41 558.132 578.011 543.296 575.765 538.907ZM139.771 538.775C129.858 536.126 124.181 535.924 124.982 538.248C125.298 539.162 124.453 543.128 123.106 547.061C119.927 556.347 117.265 574.853 118.438 579.516C119.448 583.528 119.453 583.528 133.316 579.744C145.393 576.449 152.181 566.387 153.583 549.705C154.339 540.707 154.304 540.577 151.157 540.77C149.401 540.877 144.277 539.979 139.771 538.775ZM116.354 533.76C111.412 530.714 75.2757 529.422 72.4971 532.191C69.907 534.777 73.522 544.859 80.6885 555.037C86.4698 563.249 94.5281 571.007 103.291 576.799C105.124 578.011 106.989 579.034 107.434 579.072C107.878 579.107 108.633 574.458 109.111 568.738C110.056 557.436 112.962 544.842 116.047 538.672C117.567 535.631 117.635 534.55 116.354 533.76ZM480.198 562.331C479.988 562.122 477.664 562.542 475.033 563.267C471.325 564.288 470.269 565.251 470.33 567.553C470.374 569.186 469.944 572.167 469.376 574.179C467.654 580.278 470.728 578.42 475.837 570.273C478.444 566.117 480.405 562.545 480.198 562.331ZM623.807 532.35C619.472 531.845 584.494 533.648 583.723 534.416C583.55 534.589 584.868 539.316 586.652 544.92C590.487 556.965 593.054 571.76 591.925 575.311C589.915 581.628 601.205 574.751 610.083 564.25C616.335 556.855 628.635 537.162 628.635 534.549C628.634 533.649 626.462 532.659 623.807 532.35ZM357.311 509.655C353.326 505.724 350.123 505.047 347.568 507.595C345.108 510.05 345.608 512.911 350.213 522.727C352.654 527.929 354.705 534.75 355.04 538.776C355.576 545.225 355.289 546.112 351.408 549.982C347.862 553.519 346.517 554.056 342.915 553.368C330.718 551.038 327.099 535.087 334.668 517.019C337.575 510.079 337.187 507.518 333.074 506.488C330.169 505.761 328.832 506.358 325.809 509.732C321.631 514.396 317.968 525.211 317.968 532.88C317.968 546.037 329.175 566.981 339.875 573.82C347.934 578.972 353.77 576.116 359.646 564.146C364.395 554.474 365.902 547.355 365.906 534.59C365.91 522.704 363.526 515.789 357.311 509.655ZM445.91 541.196C442.021 536.522 428.195 541.235 426.544 547.798C425.478 552.033 426.422 553.426 432.402 556.451C435.096 557.814 437.969 558.994 438.785 559.073C439.602 559.153 441.899 555.596 443.891 551.17C446.777 544.755 447.187 542.731 445.91 541.196ZM259.478 539.771C253.996 538.677 252.464 541.911 254.453 550.377L255.969 556.829L261.773 556.177C264.966 555.818 268.494 554.612 269.613 553.495C273.867 549.251 268.142 541.499 259.478 539.771ZM342.112 521.957C340.263 521.957 337.365 530.174 337.363 535.421C337.363 538.071 338.196 541.242 339.215 542.467C340.234 543.692 342.321 544.515 343.852 544.297C346.133 543.972 346.705 542.817 347.028 537.891C347.419 531.931 344.342 521.958 342.112 521.957ZM136.889 521.641C135.529 520.515 134.385 521.081 131.975 524.07C130.247 526.213 129.247 528.393 129.752 528.916C130.258 529.438 135.13 530.801 140.578 531.944C146.025 533.087 150.765 534.305 151.114 534.651C151.461 534.997 152.114 535.28 152.564 535.28C153.713 535.28 156.679 527.122 155.956 525.952C155.629 525.424 151.603 524.568 147.011 524.05C142.418 523.532 137.863 522.447 136.889 521.641ZM564.303 524.063C560.453 524.665 555.046 525.191 552.287 525.232C548.567 525.288 547.103 525.943 546.619 527.77C546.261 529.124 545.604 531.441 545.16 532.918C544.248 535.955 545.405 535.928 562.303 532.507C570.925 530.761 571.303 530.523 571.303 526.827V522.969L564.303 524.063ZM406.604 467.34C396.431 457.501 390.993 455.454 389.285 460.819C388.112 464.505 390.607 471.375 394.436 475.202L395.184 475.925C397.148 477.891 400.461 482.178 402.814 485.826C406.492 491.528 408.858 493.57 415.002 496.346C419.195 498.24 424.322 501.19 426.395 502.901C428.468 504.612 431.886 506.013 433.992 506.013C438.69 506.013 458.028 511.986 465.293 515.682C471.709 518.945 477.508 520.593 487.293 521.932C497.466 523.324 498.578 523.074 498.966 519.301C499.819 511.005 485.868 497.258 473.293 494.003C470.36 493.244 464.359 491.164 459.959 489.381C449.771 485.252 428.207 478.569 421.372 477.422C417.267 476.733 414.037 474.529 406.604 467.34ZM557.098 511.037C552.096 508.124 549.086 509.905 547.775 516.553C547.022 520.372 547.22 520.969 549.008 520.284C550.178 519.836 553.612 518.804 556.639 517.991C562.871 516.317 562.993 514.471 557.098 511.037ZM146.033 507.354C143.648 507.354 137.97 513.06 137.97 515.458C137.97 516.571 144.147 516.749 149.655 515.795C152.558 515.292 152.596 515.121 150.621 511.312C149.435 509.026 147.498 507.354 146.033 507.354ZM56.8574 466.908C50.0936 463.42 49.6012 463.916 50.2197 473.604C50.6384 480.161 51.4063 482.863 53.2266 484.19C57.8 487.526 62.4776 482.482 65.333 471.135C66.09 468.127 65.8476 467.739 63.5791 468.331C62.1315 468.709 59.1066 468.068 56.8574 466.908ZM62.6074 449.568C60.6731 447.049 60.4973 447.108 56.6895 451.563C53.2776 455.555 53.0392 456.328 54.8613 457.484C56.014 458.216 58.8349 460.076 61.1299 461.617C63.4247 463.158 65.8532 463.926 66.5264 463.322C67.9844 462.015 65.5185 453.36 62.6074 449.568ZM672.645 456.819C671.911 456.819 671.312 457.454 671.312 458.229C671.312 459.003 671.911 459.266 672.645 458.814C673.378 458.362 673.977 457.729 673.978 457.406C673.978 457.084 673.378 456.819 672.645 456.819ZM655.558 431.271C653.436 433.254 650.025 436.256 647.978 437.941C644.378 440.904 644.341 441.065 646.83 442.804C648.246 443.793 650.884 447.765 652.691 451.631C655.341 457.299 656.063 458.075 656.418 455.638C656.673 453.887 658.778 451.485 661.418 449.932C666.012 447.228 666.972 445.621 664.795 444.279C664.145 443.878 663.206 441.385 662.708 438.739C662.21 436.093 661.266 432.519 660.609 430.796L659.415 427.664L655.558 431.271ZM38.6738 428.894C36.8962 428.894 34.031 438.265 33.6084 445.461C33.3076 450.583 33.4338 450.747 38.3135 451.57C41.0716 452.036 43.7223 452.809 44.2031 453.288C46.1267 455.206 48.6327 453.987 48.6328 451.132C48.6328 449.466 49.4519 446.922 50.4531 445.479C51.4543 444.037 52.6951 441.51 53.21 439.864C54.0002 437.338 53.6513 436.872 50.9717 436.872C49.1858 436.872 46.1222 435.128 43.9658 432.883C41.8581 430.689 39.4765 428.894 38.6738 428.894ZM24.3486 451.684C24.9928 449.755 23.6912 448.005 22.498 449.195C22.0581 449.634 22.1679 450.752 22.7422 451.679C23.5822 453.034 23.897 453.035 24.3486 451.684ZM21.2773 412.936C19.8461 412.936 15.2988 423.824 15.2988 427.25C15.299 429.33 17.1369 433.923 19.3838 437.457C21.6307 440.991 23.942 443.352 24.5205 442.705C25.0986 442.057 26.3517 438.535 27.3047 434.878C28.2576 431.221 29.8032 427.331 30.7393 426.233C32.1665 424.561 31.5884 423.327 27.1553 418.587C24.2478 415.478 21.6026 412.936 21.2773 412.936ZM679.141 411.604C678.553 411.604 676.022 413.4 673.517 415.595C671.011 417.789 668.29 419.584 667.47 419.584C665.442 419.584 665.565 420.624 668.646 429.558C670.113 433.809 671.312 438.53 671.312 440.047C671.313 442.517 671.765 442.354 675.646 438.483C679.829 434.312 679.983 433.768 680.094 422.883C680.157 416.682 679.728 411.607 679.141 411.604ZM47.8037 407.078C46.0713 409.933 44.6509 413.011 44.6465 413.92C44.6428 414.828 43.4022 416.325 41.8906 417.245C39.2639 418.845 39.4846 419.224 46.8906 425.821C51.6639 430.074 55.1186 432.251 55.8867 431.492C56.5724 430.814 57.393 426.684 57.71 422.313C58.2082 415.444 57.7889 413.52 54.6201 408.127L50.9541 401.888L47.8037 407.078ZM665.732 395.282C661.063 388.424 660.071 387.577 659.264 389.752C658.739 391.165 655.15 395.613 651.287 399.636C642.811 408.463 640.646 413.19 640.646 422.865C640.646 426.91 640.919 430.22 641.253 430.222C641.587 430.222 644.071 428.726 646.772 426.897C649.474 425.069 653.06 423.573 654.739 423.573C657.445 423.573 657.672 423.151 656.73 419.878C656.146 417.846 654.346 413.598 652.73 410.439C649.551 404.224 649.852 400.963 653.604 400.969C655.128 400.971 657.352 403.592 659.81 408.282C661.916 412.303 664.016 415.543 664.477 415.481C664.937 415.419 667.413 412.929 669.979 409.948C673.078 406.349 674.075 404.335 672.946 403.954C672.011 403.638 668.765 399.736 665.732 395.282ZM39.7695 391.313C34.6322 388.471 33.9756 388.436 33.9756 391.002C33.9756 392.11 31.7255 396.399 28.9756 400.531C25.658 405.517 24.5301 408.23 25.624 408.595C26.5308 408.897 28.6311 410.274 30.291 411.654C31.9509 413.035 33.6089 414.156 33.9756 414.144C34.7772 414.114 45.0404 394.165 44.4131 393.855C44.1725 393.737 42.0828 392.593 39.7695 391.313ZM15.8164 405.541C16.2717 404.358 16.0485 403.824 15.293 404.289C14.568 404.736 13.9746 405.665 13.9746 406.354C13.9747 408.266 14.9301 407.844 15.8164 405.541ZM19.2686 371.92C19.24 370.311 18.1439 370.893 15.2686 374.046C10.2453 379.554 10.0931 385.354 14.7314 394.483L18.1553 401.221L24.1279 392.15L30.1016 383.08L24.7051 378.608C21.7368 376.149 19.29 373.139 19.2686 371.92ZM677.853 375.014C674.319 378.31 670.802 381.008 670.037 381.008C667.637 381.008 668.506 384.254 672.647 390.768C674.847 394.227 676.647 397.935 676.647 399.007C676.648 402.208 678.965 401.235 682.574 396.516C688.383 388.919 689.222 384.704 686.589 376.354L684.276 369.021L677.853 375.014ZM20.5957 297.7C20.5601 295.616 20.0492 295.804 17.3076 298.911C10.3811 306.761 7.90434 326.498 12.0059 341.155C13.1249 345.154 14.4035 350.67 14.8477 353.413C15.2916 356.155 15.8959 358.399 16.1904 358.4C16.4848 358.4 19.6614 356.917 23.249 355.104C32.0976 350.632 41.6934 348.536 44.1211 350.545C46.3929 352.425 46.5848 364.104 44.4805 372.439C43.3379 376.965 42.3647 378.347 40.3223 378.348C37.8158 378.348 37.8646 378.623 41.1465 382.914C43.0669 385.425 44.6387 388.118 44.6387 388.898C44.6389 392.896 47.9321 389.312 51.584 381.34C57.1793 369.125 58.1436 356.193 54.1328 347.149C52.5775 343.643 51.3047 339.951 51.3047 338.947C51.3046 336.541 50.495 336.632 43.9951 339.771C36.8705 343.21 26.6305 344.643 24.1055 342.553C20.8625 339.869 20.111 328.75 22.6562 321.107C23.8985 317.377 25.7526 314.005 26.7764 313.613C29.5289 312.56 29.0821 310.803 24.6377 305.206C22.4377 302.436 20.6189 299.058 20.5957 297.7ZM682.038 298.11C681.417 296.079 680.522 296.714 676.883 301.768C674.461 305.131 671.641 307.884 670.618 307.884C669.248 307.884 669.798 310.076 672.7 316.195C675.848 322.832 676.643 326.306 676.644 333.437C676.644 340.703 676.193 342.607 674.224 343.658C669.65 346.099 656.028 341.174 652.175 335.688L650.21 332.89L648.191 336.013C647.081 337.73 645.167 343.025 643.938 347.779C641.403 357.576 641.863 366.577 645.366 375.706C646.629 378.997 647.734 383.336 647.82 385.348C647.907 387.358 648.277 388.807 648.644 388.568C649.01 388.329 651.293 387.288 653.716 386.255C656.595 385.027 657.906 383.681 657.499 382.368C657.157 381.263 655.625 376.933 654.094 372.746C650.727 363.536 650.34 352.056 653.358 350.9C656.013 349.884 675.008 356.784 676.404 359.271C678.022 362.154 681.456 357.737 684.933 348.302C688.964 337.361 689.215 313.746 685.384 305.889C683.957 302.963 682.452 299.463 682.038 298.11ZM664.993 361.785C659.063 360.367 658.025 363.529 661.847 371.374L664.781 377.398L668.83 373.56C671.056 371.449 673.663 368.225 674.621 366.396C676.266 363.258 676.166 363.065 672.835 362.944C670.894 362.874 667.365 362.353 664.993 361.785ZM36.6758 361.077C33.0702 361.077 24.6154 365.241 24.6992 366.976C24.7371 367.754 27.2723 370.394 30.332 372.841L35.8945 377.291L37.5703 370.847C39.829 362.16 39.7298 361.077 36.6758 361.077ZM32.7617 315.853C30.5066 315.853 27.0806 326.892 27.9316 331.416C28.9005 336.566 32.3004 337.185 39.8652 333.587C45.3357 330.985 46.8264 328.272 43.3838 327.182C42.0365 326.755 39.3584 324.032 37.4326 321.13C35.5072 318.228 33.4054 315.853 32.7617 315.853ZM665.32 320.709C663.092 316.027 660.647 314.263 660.646 317.339C660.646 318.157 658.847 320.871 656.646 323.37C654.447 325.868 652.647 328.366 652.646 328.922C652.646 329.477 655.197 330.915 658.313 332.118C661.43 333.321 664.88 334.171 665.98 334.007C668.647 333.609 668.319 327.012 665.32 320.709ZM0.535156 317.848C1.00654 314.841 1.28339 314.055 1.45605 316.158C0.914404 322.056 0.5222 327.997 0.282227 333.977C0.267925 333.81 0.252319 333.642 0.238281 333.473C-0.171738 328.536 -0.038154 321.505 0.535156 317.848ZM698.502 315.721C698.643 313.316 698.935 314.168 699.527 317.381C700.147 320.742 700.154 326.483 699.557 330.43C699.308 325.499 698.956 320.595 698.502 315.721ZM651.351 298.153C651.288 294.072 648.962 296.933 646.615 303.979C645.206 308.209 644.698 312.383 645.24 315.267C646.266 320.72 647.178 320.908 651.313 316.518C653.036 314.689 655.54 313.193 656.879 313.192C660.228 313.192 659.951 311.847 655.351 305.783C653.171 302.91 651.371 299.476 651.351 298.153ZM658.436 278.621C657.421 278.626 652.648 288.699 652.647 290.837C652.647 291.326 655.797 294.732 659.647 298.406C665.112 303.622 666.755 304.591 667.137 302.823C667.406 301.578 668.676 299.063 669.961 297.234C673.451 292.267 674.547 287.925 672.311 287.925C671.293 287.925 668.007 285.83 665.009 283.271C662.011 280.711 659.053 278.619 658.436 278.621ZM39.7383 280.902C36.6452 276.015 36.131 275.683 35.2402 277.998C34.6869 279.435 31.9009 282.855 29.0488 285.598L23.8623 290.585L29.9189 297.227C34.9024 302.691 36.0486 303.412 36.3906 301.297C36.6192 299.883 39.2562 296.518 42.251 293.819C46.9585 289.578 47.3939 288.743 45.4639 287.666C44.2359 286.981 41.6591 283.937 39.7383 280.902ZM13.958 285.271C13.2249 285.271 12.6251 285.869 12.625 286.601C12.625 287.332 13.2248 287.931 13.958 287.931C14.6914 287.931 15.292 287.332 15.292 286.601C15.2919 285.869 14.6913 285.271 13.958 285.271ZM643.743 265.979C633.91 259.124 632.655 259.427 632.701 268.647C632.731 274.587 634.376 278.174 639.3 283.031C643.771 287.443 645.332 287.351 647.322 282.559C648.246 280.335 650.184 277.689 651.629 276.68C655.028 274.305 654.333 273.363 643.743 265.979ZM672.634 257.484C672.634 254.473 670.026 256.184 666.262 261.666L662.381 267.317L669.174 274.706C674.998 281.04 676.205 281.81 677.634 280.104C680.58 276.586 679.68 267.308 675.967 262.906C674.133 260.733 672.634 258.293 672.634 257.484ZM27.2783 258.674C24.8321 258.674 21.7325 265.257 20.7383 272.563C19.5977 280.947 20.3834 281.505 26.3135 276.528C28.6829 274.54 31.4165 273.374 32.8389 273.744C34.1846 274.095 35.2864 274.048 35.2871 273.639C35.2871 271.594 28.3726 258.674 27.2783 258.674ZM642.332 241.386C641.415 241.386 639.911 244.935 637.025 253.911C636.423 255.785 636.721 256.265 638.146 255.72C639.213 255.311 643.959 257.304 648.693 260.146C658.452 266.007 659.298 266.233 659.31 262.996C659.314 261.716 660.511 258.873 661.968 256.679C665.348 251.587 665.337 249.365 661.93 249.365C660.442 249.365 655.659 247.569 651.301 245.375C646.944 243.181 642.908 241.386 642.332 241.386ZM24.6318 245.295C24.6318 244.52 24.032 244.256 23.2988 244.708C22.5656 245.16 21.965 245.794 21.9648 246.116C21.9648 246.439 22.5655 246.703 23.2988 246.703C24.0318 246.703 24.6316 246.069 24.6318 245.295ZM658.062 224.228C656.928 225.983 654.302 229.154 652.227 231.273C648.002 235.586 648.456 236.323 656.952 238.933C659.69 239.774 662.946 241.581 664.188 242.949C665.926 244.865 666.691 245.047 667.521 243.742C669.793 240.172 668.551 233.727 664.382 227.448L660.123 221.035L658.062 224.228ZM41.9688 223.071C41.9688 220.225 37.2251 223.483 34.2168 228.396C32.7557 230.783 30.9506 234.98 30.2051 237.723C29.1104 241.75 29.2085 242.71 30.7129 242.71C32.1102 242.71 43.58 237.835 48.4199 235.185C48.6685 235.048 47.3184 232.658 45.4199 229.871C43.5215 227.085 41.9689 224.025 41.9688 223.071ZM228.93 176.265C217.646 173.971 199.292 172.543 199.292 173.958C199.292 174.187 200.464 176.793 201.896 179.75C207.225 190.748 221.924 199.687 242.307 204.324C258.107 207.919 259.51 208.687 272.444 220.822C279.201 227.161 285.643 231.91 289.61 233.475L289.608 233.476C293.101 234.853 297.459 235.845 299.292 235.681C302.199 235.419 302.608 234.772 302.493 230.619C302.288 223.177 296.139 211.429 288.636 204.14C276.32 192.174 252.506 181.057 228.93 176.265ZM639.705 212.366C627.87 207.784 618.034 206.848 615.369 210.051C613.105 212.77 622.294 222.434 632.285 227.841C640.973 232.542 644.637 233.128 644.638 229.815C644.638 228.575 646.228 225.272 648.17 222.477C650.112 219.681 651.462 217.215 651.17 216.996C650.878 216.777 645.718 214.694 639.705 212.366ZM80.9482 208.866C76.4175 207.874 58.1894 211.221 53.0615 213.987C45.6672 217.976 45.6758 217.845 52.3311 225.144C57.1117 230.386 58.9577 231.65 59.9688 230.371C60.7021 229.443 65.6125 226.151 70.8809 223.056C85.3681 214.543 88.2598 210.468 80.9482 208.866ZM494.474 175.445C491.627 176.45 483.297 178.93 475.964 180.957C448.328 188.594 424.586 199.63 413.963 209.777C409.93 213.63 404.853 219.049 402.683 221.817C400.512 224.586 398.502 227.085 398.216 227.37C397.93 227.656 398.128 228.587 398.657 229.44H398.655C401.139 233.448 433.289 226.099 447.898 218.186C453.8 214.989 461.629 211.476 465.296 210.38C487.169 203.841 496.699 195.085 498.831 179.568L499.649 173.618L494.474 175.445ZM146.838 183.571C150.345 181.121 152.128 175.615 149.031 176.801C147.89 177.238 144.258 178.272 140.96 179.101L134.964 180.606L138.132 183.036C141.999 186.002 143.249 186.079 146.838 183.571ZM550.262 177.589L541.303 177.631L545.044 180.913C547.102 182.718 549.691 184.195 550.799 184.195C553.754 184.195 557.542 181.906 558.438 179.578C559.092 177.878 557.759 177.554 550.262 177.589ZM546.295 158.646C544.076 156.81 543.843 157.158 542.816 163.849L541.959 169.434L549.942 170.335C554.333 170.83 558.646 172.103 559.528 173.163C560.882 174.79 561.802 174.297 565.428 170.001C570.435 164.069 570.224 163.852 557.328 161.657C552.208 160.786 547.243 159.431 546.295 158.646ZM156.69 160.176C158.399 156.991 158.108 156.993 146.643 160.264C141.514 161.726 135.366 162.923 132.98 162.923C129.693 162.923 128.643 163.502 128.643 165.316C128.643 166.633 127.923 168.429 127.043 169.307C125.048 171.296 128.363 171.37 140.582 169.608C146.716 168.724 149.714 168.803 151.018 169.882C153.123 171.624 155.254 169.269 155.289 165.163C155.3 163.835 155.931 161.59 156.69 160.176ZM575.903 165.583C575.58 165.583 575.316 166.181 575.315 166.912C575.315 167.644 575.951 168.242 576.728 168.242C577.504 168.242 577.769 167.643 577.315 166.912C576.862 166.181 576.227 165.583 575.903 165.583ZM592.015 119.038C591.714 119.041 591.08 121.882 590.605 125.354C589.348 134.552 585.928 146.873 583.002 152.746C581.601 155.559 580.727 158.134 581.062 158.469C581.396 158.803 587.589 159.88 594.822 160.862C612.568 163.273 623.539 163.354 626.632 161.099C629.041 159.342 629.048 159.051 626.818 153.229C623.76 145.243 615.921 136.559 603.064 126.916C597.288 122.583 592.315 119.038 592.015 119.038ZM106.627 116.378C105.783 116.378 101.43 119.682 96.9551 123.722C82.6605 136.624 67.6082 159.182 71.5215 161.838C72.5095 162.507 81.6309 162.73 91.9707 162.337C102.237 161.947 111.987 161.612 113.638 161.595C117.184 161.557 117.287 160.806 114.617 154.434C111.467 146.915 108.627 133.234 108.383 124.41C108.244 119.37 107.589 116.379 106.627 116.378ZM128.465 110.141C121.356 109.377 111.764 112.363 112.475 115.119C112.747 116.177 113.789 121.62 114.789 127.216C116.624 137.484 122.474 155.518 124.976 158.615C126.052 159.948 126.635 159.889 127.82 158.324C128.641 157.242 134.614 155.133 141.094 153.64C155.272 150.372 158.716 148.788 156.759 146.437C155.993 145.517 154.139 140.796 152.637 135.946C148.055 121.151 138.78 111.249 128.465 110.141ZM573.325 113.479C551.668 114.63 544.663 122.039 544.179 144.305C544.005 152.28 544.2 152.92 546.701 152.581C548.192 152.379 552.992 153.078 557.368 154.133C568.814 156.893 573.85 156.835 573.724 153.945C573.668 152.664 575.272 146.83 577.287 140.979C579.637 134.158 581.019 127.24 581.139 121.697L581.325 113.053L573.325 113.479ZM262.51 138.188C259.714 137.23 257.323 136.569 257.194 136.718C255.9 138.248 251.322 147.96 251.322 149.177C251.322 150.05 252.266 151.704 253.418 152.854C256.667 156.094 261.766 155.371 266.092 151.056C272.082 145.081 270.971 141.09 262.51 138.188ZM438.577 137.655C434.599 137.655 426.693 140.774 425.405 142.851C423.876 145.319 425.972 149.522 429.753 151.57C434.422 154.099 439.913 154.122 441.994 151.62C443.314 150.035 443.316 148.814 442.006 145.659C441.1 143.477 440.708 140.784 441.135 139.674C441.702 138.2 441.011 137.655 438.577 137.655ZM468.33 30.6836C463.499 30.2074 463.33 30.3337 463.33 34.4102C463.33 39.1989 457.565 48.5557 454.615 48.5557C452.135 48.5557 452.164 49.2201 454.823 53.2676L456.983 56.5557L462.328 51.7402C467.33 47.2334 468.125 46.9618 474.738 47.5088C483.07 48.1979 490.312 52.9838 493.679 60.0244C495.779 64.4163 495.75 64.6867 492.88 67.5391C490.223 70.1787 488.608 70.4856 477.905 70.3867C470.687 70.32 465.287 69.658 464.352 68.7246C462.393 66.771 460.662 66.7291 460.662 68.6348C460.662 69.4386 459.718 72.0828 458.562 74.5107L456.462 78.9258L473.896 104.875C483.483 119.145 491.327 131.46 491.329 132.244C491.329 133.026 490.579 133.684 489.662 133.706C485.223 133.814 494.697 137.015 511.76 141.172C522.156 143.705 531.235 146.603 531.934 147.612C533.916 150.475 535.33 148.612 535.33 143.14C535.33 134.966 538.037 122.707 541.016 117.393C546.108 108.308 557.073 103.187 571.595 103.111L577.859 103.079L576.521 99.2529C574.138 92.4375 560.572 83.5932 544.664 78.4854C540.631 77.1905 536.519 75.4863 535.524 74.6982C534.022 73.5067 533.874 74.9369 534.65 83.1992C536.283 100.576 531.637 115.29 522.665 121.153C515.121 126.083 500.196 122.618 492.597 114.172C486.855 107.791 485.776 105.995 484.552 100.789C480.313 82.7684 496.659 64.3544 515.307 66.1416C518.987 66.4942 521.997 66.5472 521.997 66.2598C521.996 63.6446 514.898 53.1598 508.83 46.8096C499.77 37.3288 490.914 32.5753 480.813 31.7715C476.697 31.4439 471.08 30.9546 468.33 30.6836ZM227.327 121.709C229.088 112.45 228.942 110.845 226.789 115.775C225.816 118.004 222.361 123.091 219.112 127.079C215.864 131.067 212.685 135.18 212.049 136.219C211.188 137.623 211.439 137.898 213.027 137.29C214.202 136.841 217.751 135.781 220.913 134.935C228.357 132.943 229.077 132.441 227.392 130.416C226.428 129.258 226.408 126.542 227.327 121.709ZM266.569 63.9453C265.187 62.0593 264.059 63.0073 258.022 71.1289C249.566 82.5052 245.01 86.4051 242.553 84.3711C240.443 82.625 240.056 84.8257 238.203 109.063C237.476 118.572 236.468 127.398 235.963 128.679C235.17 130.688 235.872 131.006 241.108 131.006C244.443 131.006 247.549 131.614 248.01 132.357C249.364 134.543 250.576 133.068 258.088 120.072C269.327 100.631 283.29 80.4727 285.518 80.4727C289.447 80.4725 286.387 77.1905 277.318 71.6807C272.283 68.6211 267.445 65.1403 266.569 63.9453ZM170.662 92.6289C170.662 108.898 170.937 111.077 173.328 113.731C174.795 115.359 177.195 117.181 178.662 117.779C185.591 120.608 192.328 118.142 199.297 110.226C208.28 100.022 209.62 91.1456 203.267 83.9287C198.125 78.0875 190.2 75.0541 179.251 74.7363L170.662 74.4873V92.6289ZM527.186 79.7705C525.597 73.4772 522.863 70.023 521.373 72.4268C520.898 73.1936 518.895 73.825 516.922 73.8291C504.559 73.8544 492.851 82.5887 491.716 92.6328C491.234 96.8978 491.745 100.218 493.429 103.757C496.03 109.222 505.32 116.6 511.08 117.773C518.323 119.249 523.71 116.173 526.851 108.772C529.044 103.603 529.226 87.8531 527.186 79.7705ZM591.334 105.073C590.601 104.621 590.001 105.185 590.001 106.325C590.001 107.465 590.601 108.398 591.334 108.398C592.067 108.398 592.668 107.835 592.668 107.146C592.668 106.458 592.067 105.525 591.334 105.073ZM108.661 105.738C107.928 105.738 107.327 106.372 107.327 107.146C107.327 107.921 107.928 108.185 108.661 107.733C109.394 107.282 109.994 106.648 109.994 106.325C109.994 106.003 109.394 105.738 108.661 105.738ZM233.006 94.1025C233.76 88.2963 233.057 87.2569 230.261 90.0459C228.539 91.7629 228.046 102.021 229.609 103.581C230.819 104.787 232.071 101.292 233.006 94.1025ZM380.665 51.6406C380.665 48.6122 378.472 49.6522 367.545 57.8643C361.706 62.2525 356.269 65.8425 355.463 65.8428C352.944 65.8428 353.727 67.0053 363.998 78.5195C369.498 84.6851 373.998 90.639 373.998 91.75C373.998 92.8609 374.349 93.7695 374.778 93.7695C375.209 93.7678 379.61 90.1783 384.56 85.791C389.51 81.4031 394.558 77.8124 395.779 77.8115C396.999 77.8115 397.998 77.3031 397.998 76.6816C397.998 75.3052 391.177 65.7454 385.113 58.6221C382.667 55.7481 380.666 52.6067 380.665 51.6406ZM442.621 56.8799C439.874 59.6199 439.503 60.5234 441.124 60.5234C442.31 60.5235 445.517 63.5106 448.25 67.1621C450.983 70.8129 453.616 73.3562 454.103 72.8145C454.589 72.2715 455.361 68.9213 455.819 65.3701C456.553 59.6885 456.384 59.0164 454.416 59.7695C452.911 60.3453 451.214 59.4167 449.227 56.9307L446.273 53.2373L442.621 56.8799ZM403.164 29.9365C402.523 29.9365 401.998 30.8036 401.998 31.8633C401.998 32.9232 399.747 35.4312 396.997 37.4365C394.247 39.4418 390.004 42.5277 387.568 44.2939C383.196 47.4644 383.175 47.5297 385.91 49.4404C387.434 50.505 392.095 55.6784 396.268 60.9365C400.44 66.1945 404.487 70.9293 405.26 71.459C406.032 71.9883 406.854 71.5605 407.086 70.5078C407.319 69.4546 412.119 65.8135 417.753 62.416C423.387 59.0185 428.155 56.098 428.35 55.9248C428.988 55.3543 404.359 29.9406 403.164 29.9365ZM299.233 36.4219C287.052 28.0426 285.996 27.6073 285.996 30.9609C285.996 32.4124 285.153 34.2981 284.122 35.1514C281.42 37.3893 268.665 56.0324 268.663 57.748C268.663 58.5427 269.713 59.2027 270.996 59.2148C272.279 59.2268 278.13 61.8846 283.997 65.1211L294.663 71.0049L295.33 67.7871C295.697 66.0171 299.747 60.1305 304.33 54.7061C313.116 44.3075 313.73 43.2344 310.9 43.2344C309.93 43.2339 304.68 40.1685 299.233 36.4219ZM532.588 67.1729C531.811 67.1729 531.547 67.7707 532 68.502C532.453 69.2334 533.089 69.832 533.412 69.832C533.735 69.8319 534 69.2333 534 68.502C534 67.7707 533.364 67.1729 532.588 67.1729ZM167.328 67.0938C167.328 66.3194 166.728 66.0558 165.995 66.5078C165.262 66.9598 164.662 67.5935 164.662 67.916C164.662 68.2385 165.262 68.502 165.995 68.502C166.728 68.5019 167.328 67.8683 167.328 67.0938ZM219.533 52.5439C212.789 52.5443 207.4 61.3925 211.596 65.5771C215.102 69.072 232.758 65.4575 232.614 61.2744C232.531 58.8544 223.076 52.5439 219.533 52.5439ZM479.875 54.4023C473.342 51.6787 465.758 54.793 463.349 61.1885C462.509 63.4182 463.127 64.0944 467.173 65.3711C473.546 67.382 476.757 67.4657 481.692 65.75C489.127 63.1652 488.285 57.9086 479.875 54.4023ZM357.26 30.3447C347.194 21.7121 345.268 20.5326 344.935 22.7949C344.717 24.2699 340.367 29.6056 335.268 34.6523C330.168 39.6993 325.996 44.2941 325.996 44.8623C325.997 45.4303 327.047 45.9 328.33 45.9053C329.614 45.9118 335.041 49.801 340.392 54.5488C350.613 63.6195 351.691 64.3413 350.531 61.3262C349.701 59.1645 354.456 54.4427 364.33 47.626C370.757 43.1888 372.955 40.5752 370.26 40.5752C369.67 40.5741 363.82 35.971 357.26 30.3447ZM277.351 23.2969C269.796 20.0674 260.137 19.8658 253.158 22.793C248.421 24.7798 248.209 25.0818 250.584 26.4502C256.8 30.0323 259.329 33.7447 259.329 39.2861C259.329 43.3889 258.528 45.478 256.141 47.5986C253.116 50.2853 253.065 50.5874 255.141 53.4414C256.344 55.0956 257.655 56.4672 258.055 56.4912C258.454 56.5142 262.641 51.2972 267.358 44.8975C272.076 38.498 277.659 31.6198 279.765 29.6133L283.593 25.9648L277.351 23.2969ZM437.001 22.5156C431.102 20.7651 428.844 20.6954 422.667 22.0742C418.635 22.9741 415.337 23.9196 415.336 24.1758C415.336 24.4318 419.285 29.8034 424.111 36.1123C429.925 43.712 432.667 48.4198 432.236 50.0635C431.528 52.7647 434.543 53.5687 436.08 51.0889C436.576 50.2886 438.32 49.8885 439.955 50.2002L442.927 50.7666L439.814 45.3389C435.026 36.9882 435.58 35.4037 445.525 29.0078C447.682 27.6212 447.743 27.2316 446.003 26.0039C444.903 25.228 440.852 23.6584 437.001 22.5156ZM453.382 32.6338C451.785 31.3125 450.814 31.7096 448.091 34.7979C443.994 39.4438 443.925 40.6012 447.477 45.1045L450.282 48.6621L452.81 43.959C455.842 38.3164 456.019 34.8166 453.382 32.6338ZM239.527 33.9258L243.021 40.2432C244.942 43.7174 247.15 46.9997 247.927 47.5371C248.704 48.0744 249.639 48.5181 250.006 48.5234C250.923 48.5373 254.006 41.754 254.006 39.7207C254.006 37.079 248.454 33.9258 243.803 33.9258H239.527ZM337.033 14.8281C325.489 8.99328 312.962 10.5673 300.5 19.418C297.902 21.2633 295.308 22.0084 293.01 21.5703L289.494 20.9004L292.748 23.4463C294.538 24.8466 300.139 28.1964 305.196 30.8906C310.253 33.585 314.673 36.8665 315.019 38.1826C315.363 39.4981 315.889 40.5741 316.187 40.5752C316.484 40.5752 321.591 36.0396 327.534 30.4961C333.477 24.9527 339.608 19.9489 341.158 19.377C343.648 18.4585 343.166 17.9278 337.033 14.8281ZM392.439 20.249C380.502 10.4927 369.298 7.74558 360.089 12.3164C357.511 13.5961 355.387 14.9553 355.368 15.3369C355.35 15.7183 359.835 20.0953 365.335 25.0635C370.835 30.0318 375.335 34.9567 375.335 36.0068C375.335 38.9292 376.902 38.3745 385.369 32.459C389.665 29.4579 394.346 26.5728 395.771 26.0469C398.073 25.1977 397.7 24.5486 392.439 20.249ZM238 21.8799C238 21.1054 237.4 20.8412 236.667 21.293C235.934 21.7449 235.333 22.3786 235.333 22.7012C235.333 23.0237 235.934 23.2881 236.667 23.2881C237.4 23.2879 238 22.6542 238 21.8799ZM316.334 1.07129C317.984 0.754306 320.685 0.754306 322.335 1.07129C322.35 1.07409 322.364 1.07729 322.378 1.08008C320.491 1.22801 318.609 1.39052 316.73 1.56836C315.469 1.46818 315.232 1.28297 316.334 1.07129ZM368.864 0.470703C372.316 -0.162065 377.336 -0.155635 380.198 0.485352C382.497 1.00011 383.257 1.29211 382.001 1.45117C377.598 1.0504 373.172 0.731641 368.725 0.496094C368.771 0.487613 368.817 0.479312 368.864 0.470703Z" fill="#2D4F2B"/>
</svg>
