<svg width="100" height="118" viewBox="0 0 100 118" fill="none" xmlns="http://www.w3.org/2000/svg">
<path d="M93.75 118H6.25V111.789H0V6.21053H6.25V0H93.75V6.21053H100V111.789H93.75V118ZM81.25 31.0526V12.4211H18.75V31.0526H81.25ZM31.25 55.8947V43.4737H18.75V55.8947H31.25ZM56.25 55.8947V43.4737H43.75V55.8947H56.25ZM81.25 55.8947V43.4737H68.75V55.8947H81.25ZM31.25 80.7368V68.3158H18.75V80.7368H31.25ZM56.25 80.7368V68.3158H43.75V80.7368H56.25ZM81.25 80.7368V68.3158H68.75V80.7368H81.25ZM31.25 105.579V93.1579H18.75V105.579H31.25ZM56.25 105.579V93.1579H43.75V105.579H56.25ZM81.25 105.579V93.1579H68.75V105.579H81.25Z" fill="#2D4F2B"/>
</svg>
